name Walk3.mot
datacolumns 19
datarows 22
range 1.92100000 1.94200000
endheader

                time	   L_ground_force_vx	   L_ground_force_vy	   L_ground_force_vz	   L_ground_force_px	   L_ground_force_py	   L_ground_force_pz	   R_ground_force_vx	   R_ground_force_vy	   R_ground_force_vz	   R_ground_force_px	   R_ground_force_py	   R_ground_force_pz	   L_ground_torque_x	   L_ground_torque_y	   L_ground_torque_z	   R_ground_torque_x	   R_ground_torque_y	   R_ground_torque_z	
          1.92100000	         -0.08386250	          0.57926357	         -0.03386688	          0.00036772	          0.00000000	          0.00019971	         13.36041118	        664.95379187	        -20.34421969	         -0.12064792	          0.00000000	          0.34649615	          0.00000000	         -0.00070397	          0.00000000	          0.00000000	          1.82590366	          0.00000000	
          1.92200000	         -0.08686109	          0.56234347	         -0.03061340	          0.00033217	          0.00000000	          0.00017775	         13.91000431	        667.44279224	        -20.49691341	         -0.12034600	          0.00000000	          0.34646501	          0.00000000	         -0.00072048	          0.00000000	          0.00000000	          1.80220574	          0.00000000	
          1.92300000	         -0.08977960	          0.54152865	         -0.02693116	          0.00029194	          0.00000000	          0.00015302	         14.47188498	        669.93250194	        -20.65235292	         -0.12004835	          0.00000000	          0.34643361	          0.00000000	         -0.00073556	          0.00000000	          0.00000000	          1.77813625	          0.00000000	
          1.92400000	         -0.09259854	          0.51654314	         -0.02279553	          0.00024676	          0.00000000	          0.00012537	         15.04625577	        672.42247178	        -20.81017719	         -0.11975502	          0.00000000	          0.34640192	          0.00000000	         -0.00074899	          0.00000000	          0.00000000	          1.75375381	          0.00000000	
          1.92500000	         -0.09529700	          0.48710257	         -0.01818144	          0.00019637	          0.00000000	          0.00009462	         15.63331578	        674.91223564	        -20.97000132	         -0.11946609	          0.00000000	          0.34636993	          0.00000000	         -0.00076059	          0.00000000	          0.00000000	          1.72911978	          0.00000000	
          1.92600000	         -0.09785264	          0.45291455	         -0.01306351	          0.00014048	          0.00000000	          0.00006063	         16.23325943	        677.40130792	        -21.13141665	         -0.11918162	          0.00000000	          0.34633762	          0.00000000	         -0.00077011	          0.00000000	          0.00000000	          1.70429836	          0.00000000	
          1.92700000	         -0.10024165	          0.41367911	         -0.00741604	          0.00007883	          0.00000000	          0.00002322	         16.84627538	        679.88918189	        -21.29399087	         -0.11890166	          0.00000000	          0.34630498	          0.00000000	         -0.00077735	          0.00000000	          0.00000000	          1.67935697	          0.00000000	
          1.92800000	         -0.10243866	          0.36908926	         -0.00121315	          0.00001111	          0.00000000	         -0.00001775	         17.47254551	        682.37532886	        -21.45726821	         -0.11862628	          0.00000000	          0.34627198	          0.00000000	         -0.00078204	          0.00000000	          0.00000000	          1.65436649	          0.00000000	
          1.92900000	         -0.10441678	          0.31883158	          0.00557115	         -0.00006294	          0.00000000	         -0.00006246	         18.11224380	        684.85919812	        -21.62076970	         -0.11835554	          0.00000000	          0.34623862	          0.00000000	         -0.00078394	          0.00000000	          0.00000000	          1.62940155	          0.00000000	
          1.93000000	         -0.10614747	          0.26258697	          0.01296287	         -0.00014361	          0.00000000	         -0.00011107	         18.76553499	        687.34021740	        -21.78399375	         -0.11808948	          0.00000000	          0.34620488	          0.00000000	         -0.00078278	          0.00000000	          0.00000000	          1.60454058	          0.00000000	
          1.93100000	         -0.10760061	          0.20003136	          0.02098794	         -0.00023119	          0.00000000	         -0.00016373	         19.43257307	        689.81779329	        -21.94641689	         -0.11782817	          0.00000000	          0.34617075	          0.00000000	         -0.00077828	          0.00000000	          0.00000000	          1.57986580	          0.00000000	
          1.93200000	         -0.10874441	          0.13083666	          0.02967206	         -0.00032595	          0.00000000	         -0.00022061	         20.11349944	        692.29131146	        -22.10749504	         -0.11757165	          0.00000000	          0.34613621	          0.00000000	         -0.00077015	          0.00000000	          0.00000000	          1.55546299	          0.00000000	
          1.93300000	         -0.10954538	          0.05467170	          0.03904060	         -0.00042817	          0.00000000	         -0.00028187	         20.80844110	        694.76013663	        -22.26666545	         -0.11731997	          0.00000000	          0.34610125	          0.00000000	         -0.00075808	          0.00000000	          0.00000000	          1.53142103	          0.00000000	
          1.93400000	         -0.10996838	         -0.02879669	          0.04911849	         -0.00053812	          0.00000000	         -0.00034766	         21.51750893	        697.22361231	        -22.42334988	         -0.11707317	          0.00000000	          0.34606585	          0.00000000	         -0.00074176	          0.00000000	          0.00000000	          1.50783112	          0.00000000	
          1.93500000	         -0.10997652	         -0.11990245	          0.05993001	         -0.00065607	          0.00000000	         -0.00041812	         22.24079615	        699.68106063	        -22.57695924	         -0.11683128	          0.00000000	          0.34603000	          0.00000000	         -0.00072086	          0.00000000	          0.00000000	          1.48478570	          0.00000000	
          1.93600000	         -0.10953122	         -0.21897903	          0.07149868	         -0.00078226	          0.00000000	         -0.00049340	         22.97837713	        702.13178204	        -22.72690006	         -0.11659434	          0.00000000	          0.34599368	          0.00000000	         -0.00069504	          0.00000000	          0.00000000	          1.46237714	          0.00000000	
          1.93700000	         -0.10859219	         -0.32635794	          0.08384709	         -0.00091695	          0.00000000	         -0.00057364	         23.73030622	        704.57505452	        -22.87258277	         -0.11636237	          0.00000000	          0.34595685	          0.00000000	         -0.00066395	          0.00000000	          0.00000000	          1.44069636	          0.00000000	
          1.93800000	         -0.10711743	         -0.44236721	          0.09699669	         -0.00106037	          0.00000000	         -0.00065897	         24.49661684	        707.01013233	        -23.01343116	         -0.11613540	          0.00000000	          0.34591950	          0.00000000	         -0.00062722	          0.00000000	          0.00000000	          1.41983155	          0.00000000	
          1.93900000	         -0.10506324	         -0.56732972	          0.11096764	         -0.00121274	          0.00000000	         -0.00074950	         25.27732068	        709.43624438	        -23.14889223	         -0.11591342	          0.00000000	          0.34588159	          0.00000000	         -0.00058450	          0.00000000	          0.00000000	          1.39986703	          0.00000000	
          1.94000000	         -0.10238426	         -0.70156135	          0.12577854	         -0.00137426	          0.00000000	         -0.00084536	         26.07240732	        711.85259256	        -23.27844520	         -0.11569646	          0.00000000	          0.34584310	          0.00000000	         -0.00053539	          0.00000000	          0.00000000	          1.38088244	          0.00000000	
          1.94100000	         -0.09903350	         -0.84536907	          0.14144630	         -0.00154512	          0.00000000	         -0.00094662	         26.88184449	        714.25835062	        -23.40160857	         -0.11548450	          0.00000000	          0.34580402	          0.00000000	         -0.00047951	          0.00000000	          0.00000000	          1.36295223	          0.00000000	
          1.94200000	         -0.09496237	         -0.99904883	          0.15798583	         -0.00172546	          0.00000000	         -0.00105339	         27.70557883	        716.65266401	        -23.51794470	         -0.11527754	          0.00000000	          0.34576433	          0.00000000	         -0.00041645	          0.00000000	          0.00000000	          1.34614539	          0.00000000	
